<svg id="Layer_1" data-name="Layer 1" xmlns="http://www.w3.org/2000/svg" viewBox="0 0 18.01 18.04"><defs><style>.cls-1{fill:#fff;}</style></defs><path class="cls-1" d="M12,7.38A4.62,4.62,0,1,0,16.62,12,4.62,4.62,0,0,0,12,7.38ZM12,15a3,3,0,1,1,3-3,3,3,0,0,1-3,3Z" transform="translate(-3 -3.01)"/><circle class="cls-1" cx="13.8" cy="4.2" r="1.08"/><path class="cls-1" d="M20.53,6.11A4.6,4.6,0,0,0,17.9,3.48a6.81,6.81,0,0,0-2.19-.42C14.75,3,14.45,3,12,3s-2.75,0-3.71.05a6.3,6.3,0,0,0-2.18.42A4.57,4.57,0,0,0,3.48,6.11,6.31,6.31,0,0,0,3.06,8.3C3,9.26,3,9.56,3,12s0,2.75.06,3.71a6.25,6.25,0,0,0,.42,2.18,4.62,4.62,0,0,0,2.63,2.64A6.84,6.84,0,0,0,8.3,21c1,0,1.26.05,3.71.05s2.75,0,3.71-.05a6.8,6.8,0,0,0,2.18-.42,4.59,4.59,0,0,0,2.63-2.64A6.25,6.25,0,0,0,21,15.75c.05-1,.06-1.27.06-3.71S21,9.28,21,8.33A6.48,6.48,0,0,0,20.53,6.11Zm-1.21,9.53A5.12,5.12,0,0,1,19,17.33,2.94,2.94,0,0,1,17.29,19a5,5,0,0,1-1.67.31c-.95,0-1.22.06-3.65.06s-2.69,0-3.66-.06A4.8,4.8,0,0,1,6.64,19a3,3,0,0,1-1.72-1.71,5.25,5.25,0,0,1-.31-1.67c0-.95-.05-1.22-.05-3.65s0-2.69.05-3.66a5.1,5.1,0,0,1,.31-1.68A3,3,0,0,1,6.64,5a5.3,5.3,0,0,1,1.67-.31c.95,0,1.22,0,3.66,0s2.68,0,3.65,0A5,5,0,0,1,17.29,5,3,3,0,0,1,19,6.67a4.94,4.94,0,0,1,.32,1.66c0,1,.05,1.22.05,3.66s0,2.7,0,3.65Z" transform="translate(-3 -3.01)"/></svg>